<svg aria-hidden="true" version="1.1" xmlns="http://www.w3.org/2000/svg" xmlns:xlink="http://www.w3.org/1999/xlink" x="0px" y="0px" viewBox="0 0 210.67 71.83" enable-background="new 0 0 210.67 71.83" xml:space="preserve">
	 <title>eLUT</title>
	 <path d="M66.49,35.7V11.92h4.64v19.64h10.78v4.14H66.49z M92.93,35.9c4.88,0,8.75-3.3,8.75-8.34V11.92h-4.61v15.47
		c0,2.74-1.63,4.37-4.14,4.37s-4.1-1.63-4.1-4.37V11.92h-4.64v15.64C84.19,32.56,88.06,35.9,92.93,35.9 M121.41,16.18V12h-17.08v4.14
		h6.21v19.67h4.64V16.18H121.41z M75.24,65.67c4.87,0,8.75-3.31,8.75-8.35V41.7h-4.61v15.45c0,2.74-1.64,4.38-4.14,4.38
		s-4.11-1.61-4.11-4.38V41.7h-4.64v15.62C66.49,62.32,70.37,65.67,75.24,65.67 M102.24,65.47V54.35
		c0.141-1.824-0.503-3.621-1.77-4.94c-1.118-1.042-2.614-1.58-4.14-1.49c-1.631-0.018-3.197,0.637-4.33,1.81v-1.66h-4.25v17.4h4.34
		V54.92c-0.2-1.539,0.885-2.949,2.424-3.149c0.002,0,0.004-0.001,0.006-0.001c0.156-0.015,0.314-0.015,0.47,0
		c1.37,0,2.87,0.8,2.87,3.17v10.53H102.24z M105.83,65.47h4.34v-16.9h-4.34V65.47z M105.76,45.1h4.44v-3.54h-4.44V45.1z M128.28,48.1
		h-4.57l-3.56,10.72l-3.54-10.75H112l6.41,17.4h3.4L128.28,48.1z M139.28,53.31c0.272,0.586,0.408,1.225,0.4,1.87h-6.61
		c-0.009-0.646,0.127-1.285,0.4-1.87c0.792-1.604,2.735-2.263,4.34-1.47C138.448,52.155,138.965,52.672,139.28,53.31 M144,58.15
		v-1.87c0-4.94-2.74-8.41-7.58-8.41c-4.51,0-7.58,3.21-7.58,8.88c0,7,3.94,8.92,8.05,8.92c2.484,0.123,4.89-0.889,6.54-2.75
		l-2.64-2.57c-1.002,1.139-2.476,1.749-3.99,1.65c-1.949,0.149-3.65-1.311-3.799-3.26c0-0.003,0-0.007-0.001-0.01
		c-0.02-0.199-0.02-0.401,0-0.6L144,58.15z M159.65,49.54c-1.083-1.135-2.615-1.729-4.18-1.62c-1.655-0.018-3.241,0.66-4.37,1.87
		v-1.72h-4.24v17.4h4.34V55c-0.165-1.593,0.993-3.018,2.586-3.183c0.954-0.099,1.895,0.281,2.514,1.013L159.65,49.54z M167.12,65.7
		c4.11,0,7.38-1.84,7.38-5.68c0-3-1.74-4.77-5.17-5.11l-2.74-0.26c-1.3-0.14-1.8-0.64-1.8-1.51s0.73-1.67,2.47-1.67
		c1.43-0.1,2.849,0.315,4,1.17l2.67-2.7c-1.67-1.54-3.91-2-6.65-2c-3.54,0-6.71,1.9-6.71,5.54c0,3.21,1.94,4.58,5,4.88l2.8,0.26
		c1.41,0.14,1.84,0.74,1.84,1.61c0,1.3-1.57,1.8-3.07,1.8c-1.706,0.11-3.382-0.483-4.64-1.64l-2.84,2.84
		c2.24,2.2,4.67,2.51,7.41,2.51 M177.07,65.54h4.31v-17H177L177.07,65.54z M177,45.17h4.37v-3.61h-4.4L177,45.17z M193,65.54v-3.75
		h-1.57c-0.758,0.08-1.437-0.47-1.517-1.228c-0.012-0.114-0.01-0.229,0.007-0.342v-8.3H193v-3.35h-3.08v-5.14h-4.35v5.14h-1.87v3.35
		h1.83v8.61c-0.154,2.606,1.834,4.844,4.44,5c0.203,0.015,0.407,0.015,0.61,0L193,65.54z M210.71,48.14h-4.61l-3.48,10.68L199,48.07
		h-4.57l5.94,16.16l-0.73,2.14c-0.168,1.025-1.134,1.719-2.159,1.552c-0.004-0.001-0.007-0.001-0.011-0.002h-1v3.9h1.7
		c1.377,0.092,2.73-0.39,3.74-1.33c0.587-0.646,1.03-1.41,1.3-2.24L210.71,48.14z"></path>
		<path fill="#ED174D" d="M9.77,28.5l34.38,37.16l0,0l6.61-6.21l-4.53-4.83l7.36-6.92L47.43,41l-7.33,6.92L15.92,21.8
		C12,17.17,9.48,12.1,14.29,5.15L9.52,0C3.84,5.45,0.21,18.16,9.77,28.5"></path>
		<path fill="#23B900" d="M11.81,60.75l-5.12,4.82c5.43,5.69,18,9.3,28.22-0.31l3-2.79l-6.16-6.66l-3.46,3.25
		c-4.58,3.93-9.6,6.48-16.45,1.69"></path>
		<path fill="#FF8621" d="M25.66,17.45L6.94,35.05c-10.3,9.68-7.49,22.7-2.15,28.5l5.09-4.79c-4.4-7.32-1.52-12.23,2.73-16.59
		l19.21-18.06L25.66,17.45z"></path>
	</svg>